<svg xmlns="http://www.w3.org/2000/svg" width="330" height="629" fill="none">
  <mask id="b" width="623" height="629" x="39" y="0" maskUnits="userSpaceOnUse" style="mask-type:alpha">
    <mask id="a" width="623" height="630" x="38.869" y="-.523" fill="#000" maskUnits="userSpaceOnUse">
      <path fill="#ffffff" d="M 38.9 -0.5 h 623 v 630 h -623 z"/>
      <path d="M 350.4 157.1 L 370 0.5 l -0.2 157.8 L 408.6 5.4 l -19.5 156.6 l 57.4 -146.8 l -38.7 153 l 75 -138.5 l -57.5 146.8 l 91.7 -127.8 l -75.2 138.5 l 106.6 -115.2 l -91.5 127.7 l 120 -100.6 l -106.8 115 l 131.6 -84.6 l -120.2 100.6 l 141.1 -67.2 l -131.6 84.6 l 148.3 -48.8 l -141.1 67.2 l 153.1 -29.7 l -148.3 48.8 l 155.6 -10 l -153.1 29.5 l 155.6 9.9 l -155.6 9.9 l 153.1 29.5 l -155.6 -9.9 l 148.3 48.7 l -153.1 -29.5 l 141.1 67.2 l -148.3 -48.8 l 131.6 84.6 l -141.1 -67.2 l 120.2 100.6 l -131.6 -84.7 l 106.8 115.2 l -120 -100.8 l 91.5 127.8 l -106.6 -115.2 l 75.2 138.3 l -91.7 -127.8 l 57.5 146.8 l -75 -138.3 l 38.7 152.9 l -57.4 -146.8 l 19.5 156.7 l -38.7 -153 l 0.2 158 l -19.5 -156.7 l -19.5 156.7 V 470.5 l -38.7 153 l 19.7 -156.7 l -57.4 146.8 l 38.7 -152.9 l -75 138.3 l 57.5 -146.8 l -91.7 127.8 l 75.2 -138.3 l -106.8 115.2 l 91.7 -127.8 L 124.1 529.9 l 106.8 -115.2 l -131.6 84.7 l 120.2 -100.6 l -141.1 67.2 l 131.6 -84.6 l -148.3 48.8 l 141.1 -67.2 l -153.1 29.5 l 148.3 -48.7 l -155.6 9.9 l 153.1 -29.5 l -155.6 -9.9 l 155.6 -9.9 L 42.3 275 l 155.6 10 l -148.3 -48.8 l 153.1 29.7 l -141.1 -67.2 l 148.3 48.8 l -131.6 -84.6 l 141.1 67.2 l -120.2 -100.6 l 131.6 84.6 L 124.1 99.1 l 120 100.6 l -91.7 -127.7 l 106.8 115.2 l -75.2 -138.5 l 91.7 127.8 l -57.5 -146.8 l 75 138.5 l -38.7 -153 l 57.4 146.8 L 292.2 5.4 L 330.9 158.3 V 0.5 l 19.5 156.6 Z"/>
    </mask>
    <path stroke="#000000" stroke-miterlimit="10" stroke-width="2" d="M 350.4 157.1 L 370 0.5 l -0.2 157.8 L 408.6 5.4 l -19.5 156.6 l 57.4 -146.8 l -38.7 153 l 75 -138.5 l -57.5 146.8 l 91.7 -127.8 l -75.2 138.5 l 106.6 -115.2 l -91.5 127.7 l 120 -100.6 l -106.8 115 l 131.6 -84.6 l -120.2 100.6 l 141.1 -67.2 l -131.6 84.6 l 148.3 -48.8 l -141.1 67.2 l 153.1 -29.7 l -148.3 48.8 l 155.6 -10 l -153.1 29.5 l 155.6 9.9 l -155.6 9.9 l 153.1 29.5 l -155.6 -9.9 l 148.3 48.7 l -153.1 -29.5 l 141.1 67.2 l -148.3 -48.8 l 131.6 84.6 l -141.1 -67.2 l 120.2 100.6 l -131.6 -84.7 l 106.8 115.2 l -120 -100.8 l 91.5 127.8 l -106.6 -115.2 l 75.2 138.3 l -91.7 -127.8 l 57.5 146.8 l -75 -138.3 l 38.7 152.9 l -57.4 -146.8 l 19.5 156.7 l -38.7 -153 l 0.2 158 l -19.5 -156.7 l -19.5 156.7 V 470.5 l -38.7 153 l 19.7 -156.7 l -57.4 146.8 l 38.7 -152.9 l -75 138.3 l 57.5 -146.8 l -91.7 127.8 l 75.2 -138.3 l -106.8 115.2 l 91.7 -127.8 L 124.1 529.9 l 106.8 -115.2 l -131.6 84.7 l 120.2 -100.6 l -141.1 67.2 l 131.6 -84.6 l -148.3 48.8 l 141.1 -67.2 l -153.1 29.5 l 148.3 -48.7 l -155.6 9.9 l 153.1 -29.5 l -155.6 -9.9 l 155.6 -9.9 L 42.3 275 l 155.6 10 l -148.3 -48.8 l 153.1 29.7 l -141.1 -67.2 l 148.3 48.8 l -131.6 -84.6 l 141.1 67.2 l -120.2 -100.6 l 131.6 84.6 L 124.1 99.1 l 120 100.6 l -91.7 -127.7 l 106.8 115.2 l -75.2 -138.5 l 91.7 127.8 l -57.5 -146.8 l 75 138.5 l -38.7 -153 l 57.4 146.8 L 292.2 5.4 L 330.9 158.3 V 0.5 l 19.5 156.6 Z" mask="url(#a)"/>
  </mask>
  <g mask="url(#b)">
    <rect width="1101.9" height="681.2" x="-751" y="-36.5" fill="#000000" rx="45"/>
  </g>
  <path fill="#b9ff66" d="M 91.5 456.1 l 43.7 24.1 l -43.7 24.3 l -23.9 44.2 l -23.9 -44.2 L 0 480.2 l 43.7 -24.1 L 67.6 411.7 l 23.9 44.4 Z"/>
  <path fill="#191a23" d="M 207.5 236.5 l 78.1 43.1 l -78.1 43.5 l -42.7 79 l -42.7 -79 l -78.1 -43.5 l 78.1 -43.1 l 42.7 -79.3 l 42.7 79.3 Z"/>
</svg>
